999
"DXF R12 Output" (www.mydxf.blogspot.com)
 0 
SECTION
 2 
HEADER
 9 
$ACADVER
 1 
AC1009
 9 
$EXTMIN
 10 
 0 
 20 
 0 
 9 
$EXTMAX
 10 
 8.5 
 20 
 11 
 0 
ENDSEC
 0 
SECTION
 2 
ENTITIES
0
LINE
8
Layer 1
10
0.793749
20
297.793749
11
-0.793749
21
296.206251
0
LINE
8
Layer 1
10
0.000000
20
298.322915
11
0.000000
21
295.677085
0
LINE
8
Layer 1
10
2.116664
20
295.941668
11
1.058332
21
294.883336
0
LINE
8
Layer 1
10
1.587498
20
296.470834
11
0.529166
21
295.412502
0
LINE
8
Layer 1
10
1.058332
20
297.000000
11
0.000000
21
295.941668
0
LINE
8
0
10
20.132279
20
256.867744
11
22.236583
21
257.091652
0
LINE
8
0
10
22.236583
20
257.091652
11
24.246651
21
257.753356
0
LINE
8
0
10
24.246651
20
257.753356
11
24.692621
21
258.934758
0
LINE
8
0
10
24.692621
20
258.934758
11
24.983514
21
260.148297
0
LINE
8
0
10
24.983514
20
260.148297
11
25.120413
21
261.379474
0
LINE
8
0
10
25.120413
20
261.379474
11
25.104405
21
262.613791
0
LINE
8
0
10
25.104405
20
262.613791
11
24.936574
21
263.836749
0
LINE
8
0
10
24.936574
20
263.836749
11
24.618004
21
265.033851
0
LINE
8
0
10
24.618004
20
265.033851
11
24.149781
21
266.190597
0
LINE
8
0
10
24.149781
20
266.190597
11
23.532988
21
267.292489
0
LINE
8
0
10
23.532988
20
267.292489
11
22.782455
21
268.308019
0
LINE
8
0
10
22.782455
20
268.308019
11
21.920799
21
269.210706
0
LINE
8
0
10
21.920799
20
269.210706
11
20.960788
21
269.993596
0
LINE
8
0
10
20.960788
20
269.993596
11
19.915191
21
270.649737
0
LINE
8
0
10
19.915191
20
270.649737
11
18.796775
21
271.172174
0
LINE
8
0
10
18.796775
20
271.172174
11
17.618308
21
271.553952
0
LINE
8
0
10
17.618308
20
271.553952
11
16.392559
21
271.788119
0
LINE
8
0
10
16.392559
20
271.788119
11
15.132296
21
271.867721
0
LINE
8
0
10
15.132296
20
271.867721
11
16.456890
21
271.955662
0
LINE
8
0
10
16.456890
20
271.955662
11
17.741469
21
272.213876
0
LINE
8
0
10
17.741469
20
272.213876
11
18.971460
21
272.633948
0
LINE
8
0
10
18.971460
20
272.633948
11
20.132290
21
273.207466
0
LINE
8
0
10
20.132290
20
273.207466
11
21.209386
21
273.926015
0
LINE
8
0
10
21.209386
20
273.926015
11
22.188174
21
274.781182
0
LINE
8
0
10
22.188174
20
274.781182
11
23.054083
21
275.764554
0
LINE
8
0
10
23.054083
20
275.764554
11
23.792540
21
276.867715
0
LINE
8
0
10
23.792540
20
276.867715
11
24.378678
21
278.058818
0
LINE
8
0
10
24.378678
20
278.058818
11
24.797348
21
279.300403
0
LINE
8
0
10
24.797348
20
279.300403
11
25.048550
21
280.575643
0
LINE
8
0
10
25.048550
20
280.575643
11
25.132284
21
281.867710
0
LINE
8
0
10
25.132284
20
281.867710
11
25.048550
21
283.159777
0
LINE
8
0
10
25.048550
20
283.159777
11
24.797348
21
284.435016
0
LINE
8
0
10
24.797348
20
284.435016
11
24.378678
21
285.676601
0
LINE
8
0
10
24.378678
20
285.676601
11
23.792540
21
286.867704
0
LINE
8
0
10
23.792540
20
286.867704
11
23.054083
21
287.970866
0
LINE
8
0
10
23.054083
20
287.970866
11
22.188174
21
288.954237
0
LINE
8
0
10
22.188174
20
288.954237
11
21.209386
21
289.809405
0
LINE
8
0
10
21.209386
20
289.809405
11
20.132290
21
290.527954
0
LINE
8
0
10
20.132290
20
290.527954
11
18.971460
21
291.101472
0
LINE
8
0
10
18.971460
20
291.101472
11
17.741469
21
291.521544
0
LINE
8
0
10
17.741469
20
291.521544
11
16.456890
21
291.779757
0
LINE
8
0
10
16.456890
20
291.779757
11
15.132296
21
291.867698
0
LINE
8
0
10
15.132296
20
291.867698
11
5.132302
21
291.867698
0
LINE
8
0
10
5.132302
20
291.867698
11
5.132302
21
256.867744
0
LINE
8
0
10
5.132302
20
256.867744
11
20.132279
21
256.867744
0
LINE
8
0
10
22.203356
20
254.796667
11
27.203339
21
259.796651
0
LINE
8
0
10
27.203339
20
259.796651
11
28.039408
21
260.745645
0
LINE
8
0
10
28.039408
20
260.745645
11
28.741332
21
261.779747
0
LINE
8
0
10
28.741332
20
261.779747
11
29.304991
21
262.884944
0
LINE
8
0
10
29.304991
20
262.884944
11
29.726266
21
264.047223
0
LINE
8
0
10
29.726266
20
264.047223
11
30.001037
21
265.252572
0
LINE
8
0
10
30.001037
20
265.252572
11
30.125185
21
266.486979
0
LINE
8
0
10
30.125185
20
266.486979
11
30.094591
21
267.736430
0
LINE
8
0
10
30.094591
20
267.736430
11
29.905134
21
268.986912
0
LINE
8
0
10
29.905134
20
268.986912
11
29.559605
21
270.203551
0
LINE
8
0
10
29.559605
20
270.203551
11
29.069911
21
271.353448
0
LINE
8
0
10
29.069911
20
271.353448
11
28.445604
21
272.425555
0
LINE
8
0
10
28.445604
20
272.425555
11
27.696240
21
273.408825
0
LINE
8
0
10
27.696240
20
273.408825
11
26.831371
21
274.292209
0
LINE
8
0
10
26.831371
20
274.292209
11
25.860551
21
275.064660
0
LINE
8
0
10
25.860551
20
275.064660
11
24.793335
21
275.715131
0
LINE
8
0
10
24.793335
20
275.715131
11
23.639275
21
276.232573
0
LINE
8
0
10
23.639275
20
276.232573
11
27.203339
21
279.796647
0
LINE
8
0
10
27.203339
20
279.796647
11
28.181098
21
280.932777
0
LINE
8
0
10
28.181098
20
280.932777
11
28.966267
21
282.180516
0
LINE
8
0
10
28.966267
20
282.180516
11
29.554170
21
283.516361
0
LINE
8
0
10
29.554170
20
283.516361
11
29.940134
21
284.916808
0
LINE
8
0
10
29.940134
20
284.916808
11
30.119482
21
286.358354
0
LINE
8
0
10
30.119482
20
286.358354
11
30.087539
21
287.817495
0
LINE
8
0
10
30.087539
20
287.817495
11
29.839630
21
289.270728
0
LINE
8
0
10
29.839630
20
289.270728
11
29.371080
21
290.694548
0
LINE
8
0
10
29.371080
20
290.694548
11
28.695603
21
292.032656
0
LINE
8
0
10
28.695603
20
292.032656
11
27.843311
21
293.235545
0
LINE
8
0
10
27.843311
20
293.235545
11
26.834130
21
294.289901
0
LINE
8
0
10
26.834130
20
294.289901
11
25.687985
21
295.182411
0
LINE
8
0
10
25.687985
20
295.182411
11
24.424803
21
295.899760
0
LINE
8
0
10
24.424803
20
295.899760
11
23.064507
21
296.428635
0
LINE
8
0
10
23.064507
20
296.428635
11
21.627024
21
296.755722
0
LINE
8
0
10
21.627024
20
296.755722
11
20.132279
21
296.867708
0
LINE
8
0
10
20.132279
20
296.867708
11
5.132302
21
296.867708
0
LINE
8
0
10
5.132302
20
296.867708
11
0.132292
21
291.867698
0
LINE
8
0
10
0.132292
20
291.867698
11
0.132292
21
251.867733
0
LINE
8
0
10
0.132292
20
251.867733
11
15.132296
21
251.867733
0
LINE
8
0
10
15.132296
20
251.867733
11
17.092307
21
252.061657
0
LINE
8
0
10
17.092307
20
252.061657
11
18.959126
21
252.628939
0
LINE
8
0
10
18.959126
20
252.628939
11
20.680295
21
253.547853
0
LINE
8
0
10
20.680295
20
253.547853
11
22.203356
21
254.796667
0
LINE
8
0
10
22.203356
20
254.796667
11
22.203356
21
254.796667
 0 
ENDSEC
 0 
EOF