<?xml version="1.0" encoding="UTF-8" standalone="no"?>
<svg
   viewBox="0 0 793.7007874015749 1122.5196850393702"
   width="793.7007874015749"
   height="1122.5196850393702"
   version="1.1"
   id="svg6"
   sodipodi:docname="2024-05-07 BrightBuilds logov2.svg"
   inkscape:version="1.3.2 (091e20e, 2023-11-25, custom)"
   inkscape:export-filename="2024-05-07 BrightBuilds logov2.png"
   inkscape:export-xdpi="96"
   inkscape:export-ydpi="96"
   xmlns:inkscape="http://www.inkscape.org/namespaces/inkscape"
   xmlns:sodipodi="http://sodipodi.sourceforge.net/DTD/sodipodi-0.dtd"
   xmlns="http://www.w3.org/2000/svg"
   xmlns:svg="http://www.w3.org/2000/svg">
  <sodipodi:namedview
     id="namedview6"
     pagecolor="#ffffff"
     bordercolor="#000000"
     borderopacity="0.25"
     inkscape:showpageshadow="2"
     inkscape:pageopacity="0.0"
     inkscape:pagecheckerboard="true"
     inkscape:deskcolor="#d1d1d1"
     inkscape:zoom="1.3843856"
     inkscape:cx="83.430512"
     inkscape:cy="135.43914"
     inkscape:window-width="1920"
     inkscape:window-height="991"
     inkscape:window-x="-9"
     inkscape:window-y="-9"
     inkscape:window-maximized="1"
     inkscape:current-layer="g6" />
  <desc
     id="desc1">2024-05-07 BrightBuilds logov2.dxf - scale = 1.000000, origin = (0.000000, 0.000000), method = manual</desc>
  <defs
     id="defs4">
    <marker
       id="DistanceX"
       orient="auto"
       refX="0.0"
       refY="0.0"
       style="overflow:visible">
      <path
         d="M 3,-3 L -3,3 M 0,-5 L  0,5"
         style="stroke:#000000; stroke-width:0.5"
         id="path1" />
    </marker>
    <pattern
       id="Hatch"
       patternUnits="userSpaceOnUse"
       width="8"
       height="8"
       x="0"
       y="0">
      <path
         d="M8 4 l-4,4"
         stroke="#000000"
         stroke-width="0.25"
         linecap="square"
         id="path2" />
      <path
         d="M6 2 l-4,4"
         stroke="#000000"
         stroke-width="0.25"
         linecap="square"
         id="path3" />
      <path
         d="M4 0 l-4,4"
         stroke="#000000"
         stroke-width="0.25"
         linecap="square"
         id="path4" />
    </pattern>
    <symbol
       id="*MODEL_SPACE" />
    <symbol
       id="*PAPER_SPACE" />
  </defs>
  <g
     inkscape:groupmode="layer"
     inkscape:label="0"
     id="g6">
    <rect
       style="fill:#1c0a38;fill-opacity:1;stroke:none;stroke-width:1.19196"
       id="rect8"
       width="300"
       height="300"
       x="0"
       y="0" />
    <path
       d="m 178.4183,224.00886 18.8976,-18.8976 a 37.795276,37.795276 0 0 0 -13.4705,-62.1201 l 13.4705,-13.47053 A 37.795276,37.795276 0 0 0 170.5906,65 H 113.8977 L 95,83.8977 v 151.18116 h 56.693 a 37.795276,37.795276 0 0 0 26.7253,-11.07 z"
       style="fill:#7f2aff;fill-opacity:1;stroke:none"
       id="path6" />
    <path
       d="m 170.5906,216.18116 a 37.795276,37.795276 0 0 0 15.5504,-3.3472 37.795276,37.795276 0 0 0 -34.448,-53.3457 37.79528,37.79528 0 0 0 0,-75.59056 h -37.7953 v 132.28346 z"
       style="fill:#1c0a38;fill-opacity:1;stroke:#000000"
       id="path5" />
  </g>
</svg>
