<?xml version="1.0" encoding="UTF-8" standalone="no"?>
<svg
   viewBox="0 0 793.7007874015749 1122.5196850393702"
   width="793.7007874015749"
   height="1122.5196850393702"
   version="1.1"
   id="svg24"
   sodipodi:docname="2024-05-07 BrightBuilds logo.svg"
   inkscape:version="1.3.2 (091e20e, 2023-11-25, custom)"
   xmlns:inkscape="http://www.inkscape.org/namespaces/inkscape"
   xmlns:sodipodi="http://sodipodi.sourceforge.net/DTD/sodipodi-0.dtd"
   xmlns="http://www.w3.org/2000/svg"
   xmlns:svg="http://www.w3.org/2000/svg">
  <sodipodi:namedview
     id="namedview24"
     pagecolor="#ffffff"
     bordercolor="#000000"
     borderopacity="0.25"
     inkscape:showpageshadow="2"
     inkscape:pageopacity="0.0"
     inkscape:pagecheckerboard="0"
     inkscape:deskcolor="#d1d1d1"
     inkscape:zoom="0.69219278"
     inkscape:cx="397.28817"
     inkscape:cy="792.4093"
     inkscape:window-width="1920"
     inkscape:window-height="991"
     inkscape:window-x="-9"
     inkscape:window-y="-9"
     inkscape:window-maximized="1"
     inkscape:current-layer="g24" />
  <desc
     id="desc1">2024-05-07 BrightBuilds logo.dxf - scale = 1.000000, origin = (0.000000, 0.000000), method = manual</desc>
  <defs
     id="defs4">
    <marker
       id="DistanceX"
       orient="auto"
       refX="0.0"
       refY="0.0"
       style="overflow:visible">
      <path
         d="M 3,-3 L -3,3 M 0,-5 L  0,5"
         style="stroke:#000000; stroke-width:0.5"
         id="path1" />
    </marker>
    <pattern
       id="Hatch"
       patternUnits="userSpaceOnUse"
       width="8"
       height="8"
       x="0"
       y="0">
      <path
         d="M8 4 l-4,4"
         stroke="#000000"
         stroke-width="0.25"
         linecap="square"
         id="path2" />
      <path
         d="M6 2 l-4,4"
         stroke="#000000"
         stroke-width="0.25"
         linecap="square"
         id="path3" />
      <path
         d="M4 0 l-4,4"
         stroke="#000000"
         stroke-width="0.25"
         linecap="square"
         id="path4" />
    </pattern>
    <symbol
       id="*MODEL_SPACE" />
    <symbol
       id="*PAPER_SPACE" />
  </defs>
  <g
     inkscape:groupmode="layer"
     inkscape:label="0"
     id="g24">
    <path
       d="M 226.771654,895.748031 A 37.795276,37.795276 -0.000000 0, 0 151.181102,895.748031 A 37.795276,37.795276 -0.000000 0, 0 226.771654,895.748031 z"
       style="fill:none;stroke:#000000"
       id="path6" />
    <path
       d="M 226.771654,971.338583 A 37.795276,37.795276 -0.000000 0, 0 151.181102,971.338583 A 37.795276,37.795276 -0.000000 0, 0 226.771654,971.338583 z"
       style="fill:none;stroke:#000000"
       id="path7" />
    <path
       style="fill:none;stroke:#000000"
       d="M 132.283 857.953 L 132.283 1009.13"
       id="path8" />
    <path
       style="fill:none;stroke:#000000"
       d="M 132.283 1009.13 L 188.976 1009.13"
       id="path9" />
    <path
       style="fill:none;stroke:#000000"
       d="M 132.283 857.953 L 188.976 857.953"
       id="path10" />
    <path
       d="M 245.669291,876.850394 A 37.795276,37.795276 -0.000000 0, 0 170.078740,876.850394 A 37.795276,37.795276 -0.000000 0, 0 245.669291,876.850394 z"
       style="fill:none;stroke:#000000"
       id="path11" />
    <path
       d="M 245.669291,952.440945 A 37.795276,37.795276 -0.000000 0, 0 170.078740,952.440945 A 37.795276,37.795276 -0.000000 0, 0 245.669291,952.440945 z"
       style="fill:none;stroke:#000000"
       id="path12" />
    <path
       style="fill:none;stroke:#000000"
       d="M 151.181 839.055 L 151.181 990.236"
       id="path13" />
    <path
       style="fill:none;stroke:#000000"
       d="M 151.181 839.055 L 207.874 839.055"
       id="path14" />
    <path
       style="fill:none;stroke:#000000"
       d="M 151.181 990.236 L 207.874 990.236"
       id="path15" />
    <path
       style="fill:none;stroke:#000000"
       d="M 151.181 839.055 L 132.283 857.953"
       id="path18" />
    <path
       style="fill:none;stroke:#000000"
       d="M 151.181 990.236 L 132.283 1009.13"
       id="path19" />
    <path
       style="fill:none;stroke:#000000"
       d="M 234.599 979.166 L 214.757 999.009"
       id="path20" />
    <path
       style="fill:none;stroke:#000000"
       d="M 234.599 903.576 L 214.757 923.418"
       id="path21" />
    <path
       d="M 207.874016,895.748031 A 18.897638,18.897638 -0.000000 0, 0 170.078740,895.748031 A 18.897638,18.897638 -0.000000 0, 0 207.874016,895.748031 z"
       style="fill:none;stroke:#000000"
       id="path22" />
    <path
       d="M 226.771654,876.850394 A 18.897638,18.897638 -0.000000 0, 0 188.976378,876.850394 A 18.897638,18.897638 -0.000000 0, 0 226.771654,876.850394 z"
       style="fill:none;stroke:#000000"
       id="path23" />
    <path
       d="M 207.874016,971.338583 A 18.897638,18.897638 -0.000000 0, 0 170.078740,971.338583 A 18.897638,18.897638 -0.000000 0, 0 207.874016,971.338583 z"
       style="fill:none;stroke:#000000"
       id="path24" />
  </g>
</svg>
